<?xml version="1.0" encoding="utf-8"?>
<!-- Generator: Adobe Illustrator 25.2.3, SVG Export Plug-In . SVG Version: 6.00 Build 0)  -->
<svg version="1.1" id="Layer_1" xmlns="http://www.w3.org/2000/svg" xmlns:xlink="http://www.w3.org/1999/xlink" x="0px" y="0px"
	 viewBox="0 0 512 512" style="enable-background:new 0 0 512 512;" xml:space="preserve">
<style type="text/css">
	.st0{fill:none;stroke:#000000;stroke-width:11;stroke-miterlimit:10;}
	.st1{fill:none;stroke:#000000;stroke-width:12.8055;stroke-miterlimit:10;}
	.st2{fill:none;stroke:#000000;stroke-width:33.3112;stroke-miterlimit:10;}
</style>
<path class="st0" d="M447.6,457.8H64.4c-5.6,0-10.2-4.6-10.2-10.2V64.4c0-5.6,4.6-10.2,10.2-10.2h383.2c5.6,0,10.2,4.6,10.2,10.2
	v383.2C457.8,453.2,453.2,457.8,447.6,457.8z"/>
<path class="st1" d="M219.7,368.5"/>
<path class="st1" d="M219.7,177.4"/>
<g>
	<path class="st2" d="M182.9,184.3l-0.1-60.7c70.5,0.3,139.4-6.2,139.7,57.4c0.2,62.9-69.4,64.3-139.7,64.1L182.9,184.3z"/>
	<path class="st2" d="M182.8,309.6l-0.1-60.7c72.6,0.3,143.4,1.9,143.6,65.5c0.3,62.9-71.3,56.3-143.7,56L182.8,309.6z"/>
</g>
</svg>
