<svg width="1867.33" height="1479.55" xmlns="http://www.w3.org/2000/svg" clip-rule="evenodd">

 <g>
  <title>background</title>
  <rect fill="none" id="canvas_background" height="1481.55" width="1869.33" y="-1" x="-1"/>
 </g>
 <g>
  <title>Layer 1</title>
  <ellipse ry="722.00006" rx="722.00006" id="svg_3" cy="739.77501" cx="933.665003" stroke-width="null" fill="#000000"/>
  <path stroke="null" fill="#ffffff" id="svg_1" fill-rule="nonzero" d="m1486.318025,1043.776317c-40.20561,10.221344 -65.07506,0.44765 -87.382956,-33.051499l-158.683668,-219.539211l-22.937922,-30.398757l-185.310559,250.667473c-21.172191,30.158353 -43.38061,43.272842 -82.898165,32.603848l237.295998,-318.536201l-220.923611,-287.731242c37.992229,-7.386227 64.246078,-3.63094 87.557042,30.398757l164.586018,222.274851l165.796331,-221.064538c21.23851,-30.158353 44.076955,-41.614879 82.210111,-30.506525l-85.658674,113.570487l-116.057432,151.115066c-13.819124,17.267688 -11.920756,29.088966 0.795822,45.759787l221.611666,294.437704zm-1105.024255,-323.576409l19.406461,-95.473817c52.84758,-188.941499 269.419038,-267.454351 418.776662,-150.708865c87.283478,68.66455 108.977928,165.796331 104.658934,274.600173l-492.000612,0c-7.386227,195.846916 133.573814,314.04312 313.280457,253.742994c63.035765,-21.172191 100.165853,-70.538049 118.751622,-132.288892c9.433811,-30.945885 25.035246,-35.787138 54.124212,-26.941904c-14.847061,77.236221 -48.3545,141.755863 -119.166113,182.135559c-105.794639,60.441052 -256.818516,40.893665 -336.251539,-43.107046c-47.326563,-48.744121 -66.87395,-110.494965 -75.644576,-176.539933c-1.384399,-10.917688 -4.144908,-21.313118 -6.217362,-31.774867c0.182376,-17.872844 0.281854,-35.737399 0.281854,-53.610244l0,-0.033159zm51.736745,-13.12278l444.607731,0c-2.901436,-141.614936 -91.080214,-242.20357 -211.597567,-243.057421c-132.288892,-1.036227 -227.2819,97.15665 -233.018453,243.057421l0.00829,0z"/>
 </g>
</svg>