<?xml version="1.0" encoding="utf-8"?>
<!-- Generator: Adobe Illustrator 25.2.3, SVG Export Plug-In . SVG Version: 6.00 Build 0)  -->
<svg version="1.1" id="Layer_1" xmlns="http://www.w3.org/2000/svg" xmlns:xlink="http://www.w3.org/1999/xlink" x="0px" y="0px"
	 viewBox="0 0 512 512" style="enable-background:new 0 0 512 512;" xml:space="preserve">
<path d="M313.8,150.5c-8.8-4.5-18.2-6-27.6-7.4c-8.5-1.2-17-1.8-25.6-1.7c-7.2,0.1-14.4,0-21.6,0.3c-10.2,0.5-20.4,1.9-30.3,4.4
	c-4,1-8,2.3-11.4,4.6c-0.3-0.1-0.5-0.1-0.6-0.2c-3.1-4.3-7.4-7.3-11.9-9.9c-12.2-7-25.3-11.8-39.4-13.6c-2.6-0.3-5.3-0.2-7.9-0.1
	c-1.7,0-2.9,0.8-3.8,2.4c-2.6,4.8-4,9.9-4.7,15.2c-1.8,13.4-0.3,26.6,3.4,39.6c0.5,1.8,0.3,3.2-0.7,4.7c-0.5,0.7-1,1.4-1.6,2.1
	c-11.3,14.9-18.2,31.7-20.4,50.3c-3.6,31.1,4.6,58.8,25,82.6c16,18.7,36.5,30,61,33.5c5.1,0.7,10.3,0.6,15.5,0.9c0.4,0,0.8,0,1.2,0
	c2.4,0.2,3.7,2.2,2.6,4.4c-0.4,0.8-1.1,1.6-1.8,2.2c-7.2,6.8-10.6,15.4-11.8,25c-0.2,1.5-0.9,2.4-2.1,2.8c-3.7,1.3-7.3,2.8-11.1,3.8
	c-6,1.7-12.1,2.6-18.5,1.8c-10-1.2-18.4-5.5-25.8-12.2c-3.8-3.4-6.8-7.5-9.3-11.9c-3.6-6.4-8.5-11.6-14-16.2c-5.4-4.5-11.6-7-18.7-7
	c-2.3,0-4.6-0.1-6.9,0.1c-1.5,0.1-3,0.6-4.3,1.2c-1.7,0.8-2,1.9-1.2,3.5c0.5,1,1.3,2.1,2.2,2.8c1.7,1.4,3.6,2.6,5.4,3.9
	c1.7,1.2,3.5,2.2,5,3.7c4.5,4.3,8.9,8.7,13.1,13.3c3.7,4,6,8.8,7.4,14.1c0.6,2.1,1.2,4.1,1.9,6.2c1.5,4.9,4.4,8.8,8.5,11.9
	c5.4,4.1,11.5,7,17.8,9.1c10.5,3.6,21.4,5.2,32.5,4.6c4.5-0.2,9-1.3,13.2-3.1c2.6-1.1,3.8-0.5,4,2.4c0.3,6.1,0.5,12.1,0.7,18.2
	c0.2,6.9-0.1,13.7-0.9,20.6c-0.2,2-0.6,4-1.1,5.9c-0.7,2.7-2.5,4.6-4.6,6.2c-1,0.8-2,0.3-3,0c-9-2.7-17.7-5.9-26.3-9.6
	c-64.4-28.4-111.5-84.7-128-153.1c-2.8-11.7-4.8-23.6-5.5-35.7c-0.4-6.5-0.9-12.9-0.7-19.4c1.4-58.5,21.7-109.5,62-152.1
	c30.9-32.7,68.6-53.8,112.4-64.1c11.8-2.8,23.8-4.4,36-5.2c106.6-6.7,204,62.6,231.4,167.7c2.9,11.1,4.9,22.3,6,33.7
	c0.9,9,1.5,18,1.2,27c-1.6,52-18.4,98.4-51.5,138.6c-28.8,35-65.2,58.9-108.6,72.1c-2.9,0.9-4.2,0.4-5.8-2.1
	c-1.8-2.8-2.7-5.8-2.7-9.1c0-5,0.2-9.9,0.3-14.9c0.1-9.5,0.1-19,0.1-28.5c0-8.1-0.2-16.1-0.4-24.2c-0.1-3.8-0.2-7.7-0.7-11.5
	c-1-7.9-4.3-14.6-10.3-20c-0.8-0.7-1.7-1.5-2.5-2.3c-0.5-0.5-1-1.1-1.2-1.7c-0.8-1.8,0.3-3.2,2.2-3.1c8.2,0.5,16.3-0.4,24.2-2.3
	c24.5-5.8,44-19.2,58.6-39.6c13-18.2,19.6-38.6,19.7-61c0.1-24.9-7.6-47.1-23.1-66.5c-0.9-1.1-1.1-2-0.6-3.4c2-6.2,3.2-12.5,3.9-19
	c0.9-8.4,0.9-16.7-0.8-25c-0.8-4-2.1-7.9-4-11.5c-0.9-1.8-2.2-2.7-4.1-2.6c-3.7,0.1-7.4,0-11,0.6c-12.2,2-23.8,6.2-34.6,12.3
	c-4.6,2.6-8.9,5.6-12.6,9.5C314.7,149.7,314.3,150,313.8,150.5z"/>
</svg>
