<?xml version="1.0" encoding="utf-8"?>
<!-- Generator: Adobe Illustrator 25.2.3, SVG Export Plug-In . SVG Version: 6.00 Build 0)  -->
<svg version="1.1" id="Layer_1" xmlns="http://www.w3.org/2000/svg" xmlns:xlink="http://www.w3.org/1999/xlink" x="0px" y="0px"
	 viewBox="0 0 512 512" style="enable-background:new 0 0 512 512;" xml:space="preserve">
<style type="text/css">
	.st0{fill:#FFFFFF;}
	.st1{fill:none;stroke:#000000;stroke-width:19;stroke-miterlimit:10;}
</style>
<path class="st0" d="M1182.3,469c-163.8,0-327.7,0-491.5,0c0-163.8,0-327.7,0-491.5c163.8,0,327.7,0,491.5,0
	C1182.3,141.3,1182.3,305.2,1182.3,469z M1101.6,199.8c-0.9-2.5-0.8-4.6,0.1-6.6c1.8-4.5,7.4-6.7,11.3-4.3c4.2,2.6,6.6,6.5,6.3,11.6
	c-0.9,12-13.5,19.5-24.5,14.3c-6.8-3.2-13.2-7.1-18.9-12.1c-5.2-4.5-10-9.4-15-14.1c-4.2-3.8-8.3-7.7-12.7-11.3
	c-10.4-8.4-21.9-15-34.8-18.8c-10.3-3-20.7-4-31.3-2.3c-11.9,1.9-22.5,7-32.3,13.9c-5,3.5-9.2,7.7-12.2,13c-0.1,0.3-0.4,0.5-0.5,0.7
	c-0.2-0.1-0.3-0.1-0.3-0.1c-0.3-0.5-0.7-0.9-0.9-1.4c-2.5-4.2-5.7-7.7-9.6-10.6c-4.2-3.2-8.7-6-13.4-8.4c-15.1-7.9-30.9-9.8-47.4-6
	c-12.8,2.9-24.1,8.7-34.7,16.2c-9.7,6.9-18.1,15.2-26.5,23.5c-7.2,7.1-15.3,12.8-24.2,17.4c-9.5,4.8-18.8,1.3-23.8-7.9
	c-3.1-5.7-2-11.6,2.6-16c2.8-2.7,6.4-3.3,9.7-1.5c3.2,1.7,5,5.5,4.3,9.1c-0.1,0.5-0.2,1-0.4,1.7c0.5-0.2,0.8-0.3,1.1-0.4
	c3.2-2.4,5.2-5.6,5.6-9.6c0.5-5.7-1.7-10.4-5.9-14c-6.9-6-15-8.1-23.9-5.5c-8.2,2.3-14,7.8-18.3,14.9c-4.7,7.7-6.6,16.2-6.5,25.2
	c0.2,9.9,3.2,18.8,9.9,26.4c1.4,1.6,2.9,3.2,4.5,4.7c10.2,9.3,22.5,14.1,35.9,16.3c8.6,1.4,17.2,1.5,25.8,0.4
	c9.3-1.2,18.6-2.3,27.2-6.3c6.5-3,12.9-6,19.1-9.5c18.1-10.2,37-18.4,56.9-24.2c7.2-2.1,14.4-4.2,21.9-4.9
	c12.3-1.2,24.3-0.4,36.4,2.7c23,6,44.7,15.1,65.4,26.7c6.7,3.8,13.8,7.1,20.9,10.1c8.6,3.6,17.9,4.6,27.1,5.6
	c11,1.1,21.9,0.4,32.5-2.5c10.9-3,20.7-8,28.7-16.1c4.4-4.5,8.1-9.5,10.1-15.5c3.7-11.6,3.2-23-1.6-34.2c-3-7-7.5-12.8-14.2-16.7
	c-9.2-5.5-18.5-5.3-27.6,0.4c-4.7,2.9-7.7,7.1-8.7,12.6C1093.9,190.9,1096.5,197.5,1101.6,199.8z"/>
<path d="M452.2,247.4c-6.1-2.7-9.1-10.6-8.1-16.4c1.2-6.6,4.8-11.6,10.4-15.1c10.8-6.8,21.9-7,32.9-0.4c7.9,4.7,13.3,11.6,16.9,20
	c5.7,13.3,6.4,26.9,1.9,40.7c-2.3,7.2-6.8,13.2-12,18.5c-9.5,9.7-21.2,15.7-34.2,19.2c-12.7,3.5-25.7,4.3-38.8,3
	c-11-1.1-22-2.3-32.3-6.6c-8.5-3.6-16.9-7.5-24.9-12.1c-24.7-13.9-50.5-24.7-78-31.9c-14.3-3.7-28.7-4.6-43.3-3.2
	c-8.9,0.8-17.6,3.3-26.2,5.8c-23.8,6.9-46.3,16.7-67.9,28.9c-7.4,4.2-15,7.8-22.7,11.3c-10.3,4.7-21.4,6.1-32.4,7.5
	c-10.2,1.3-20.5,1.2-30.7-0.5c-16-2.6-30.6-8.3-42.8-19.4c-1.9-1.7-3.6-3.6-5.3-5.6c-8-8.9-11.5-19.6-11.7-31.4
	c-0.2-10.7,2.1-20.8,7.7-30c5.2-8.5,12.1-15,21.8-17.8c10.6-3,20.2-0.6,28.5,6.6c5,4.3,7.6,9.9,7,16.7c-0.4,4.8-2.8,8.6-6.7,11.5
	c-0.3,0.2-0.7,0.3-1.3,0.5c0.2-0.9,0.3-1.5,0.4-2.1c0.8-4.4-1.4-8.9-5.2-10.9c-3.9-2.1-8.2-1.4-11.5,1.8c-5.4,5.2-6.7,12.3-3,19.1
	c5.9,11,17.1,15.2,28.3,9.4c10.6-5.4,20.3-12.2,28.9-20.7c10-9.9,20-19.8,31.6-28c12.6-8.9,26.2-15.9,41.4-19.3
	c19.7-4.5,38.6-2.2,56.5,7.2c5.6,2.9,10.9,6.2,15.9,10c4.6,3.5,8.5,7.7,11.4,12.7c0.3,0.6,0.7,1.1,1.1,1.6c0,0.1,0.2,0.1,0.4,0.1
	c0.2-0.3,0.5-0.5,0.6-0.8c3.5-6.4,8.6-11.4,14.5-15.5c11.7-8.2,24.3-14.3,38.5-16.6c12.6-2,25.1-0.8,37.3,2.8
	c15.4,4.5,29,12.3,41.4,22.4c5.3,4.2,10.2,8.9,15.2,13.5c6,5.5,11.8,11.4,17.9,16.8c6.7,5.9,14.4,10.7,22.5,14.5
	c13.1,6.1,28.1-2.8,29.1-17.1c0.5-6.1-2.4-10.7-7.5-13.8c-4.7-2.9-11.3-0.2-13.5,5.1C451.2,241.9,451.1,244.4,452.2,247.4z"/>
<g>
	<path class="st1" d="M258.4,422c-1.7,0-3.1-79-3.1-176.6"/>
	<path class="st1" d="M257.6,421.9c2-0.2,1.8-81.5-0.6-181.7"/>
</g>
</svg>
