<?xml version="1.0" encoding="utf-8"?>
<!-- Generator: Adobe Illustrator 25.2.3, SVG Export Plug-In . SVG Version: 6.00 Build 0)  -->
<svg version="1.1" id="Layer_1" xmlns="http://www.w3.org/2000/svg" xmlns:xlink="http://www.w3.org/1999/xlink" x="0px" y="0px"
	 viewBox="0 0 512 512" style="enable-background:new 0 0 512 512;" xml:space="preserve">
<style type="text/css">
	.st0{fill:none;stroke:#000000;stroke-width:10.4205;stroke-miterlimit:10;}
</style>
<g>
	<path class="st0" d="M113.4,171.3c0-38.9,0-77.9,0-116.8c0-1.9,0.2-3.9,0.3-5.8c0.2-2.2,1.7-3.7,3.9-3.9c2.1-0.2,4.1-0.4,6.2-0.4
		c14.2,0,28.3,0,42.5,0c1.9,0,3.7,0.2,5.6,0.4c2.3,0.2,3.5,1.4,3.7,3.7c0.1,1.2,0.1,2.4,0.1,3.5c0,50.5,0,101,0,151.6
		c0,1.6,0.1,3.2,0.4,4.7c0.4,1.9,1.2,2.4,3.1,2.1c1.4-0.3,2.7-0.7,4-1c9.4-2.3,18.7-4.7,28.1-6.8c9.1-2,18.2-3.7,27.4-4.9
		c1.2-0.2,2.4-0.6,3.7-0.8c3-0.4,6-0.8,9.1-1.1c3.7-0.4,7.4-0.8,11.1-1.2c2.3-0.2,6.2-0.5,8.5-0.5c8.3-0.2,16.7-0.4,25-0.3
		c6.3,0.1,12.6,0.9,18.8,1.7c6.8,0.8,13.4,2.5,19.9,4.4c4.6,1.4,9.2,2.7,13.4,5.1c3.8,2.1,7.9,3.7,11.6,6.1
		c6.4,4.1,12.5,8.6,17.2,14.6c3.4,4.3,7,8.4,10,13c4.3,6.7,7.4,13.9,9.2,21.7c1.2,5.3,1.6,10.8,2.7,16.2c0,0.2,0.1,0.6,0.1,0.9
		c0.1,4.5,0.3,9,0.3,13.5c0,55.7,0,111.3,0,167c0,1.9-0.2,3.9-0.4,5.8c-0.2,1.9-1.7,3.3-3.5,3.5c-2.3,0.2-4.6,0.3-6.8,0.3
		c-14.3,0-28.6,0-42.9,0c-1.6,0-3.2-0.2-4.8-0.4c-1.8-0.2-2.9-1.3-3.2-3.1c-0.2-1.5-0.4-3-0.4-4.5c0-49.1,0-98.3,0-147.4
		c0-8.6,0-17.2,0-25.8c0-2.6,0-5.3-0.4-7.9c-1.1-7.7-4.8-13.7-11.8-17.6c-6.7-3.7-13.9-5.6-21.4-6.3c-3.1-0.3-6.2-0.3-9.3-0.4
		c-2.3-0.1-4.6-0.3-6.8-0.3c-2.8,0-5.6,0.3-8.4,0.3c-2.5,0-5,0-7.5,0.1c-6.4,0.4-12.8,1.1-19.1,2.1c-7.4,1.2-14.8,2.5-22.1,3.9
		c-7.1,1.4-14.3,2.9-21.3,4.6c-7.1,1.7-14.1,3.8-21.1,5.8c-5.4,1.5-10.8,3.1-16.1,4.9c-4.7,1.5-9.3,3.3-13.9,5
		c-4.8,1.8-9.6,3.7-14.3,5.6c-5.4,2.2-10.7,4.6-16.1,6.7c-3.3,1.3-6.8,2.4-10.2,3.5c-1.1,0.4-2.3-0.1-2.9-1.2
		c-0.6-1.1-0.9-2.4-1.1-3.6c-0.2-0.9,0-1.8,0-2.7C113.4,249.7,113.4,210.5,113.4,171.3z"/>
	<path class="st0" d="M305.5,150.5c-9.3,0-18.6,0-27.9,0c-1.7,0-3.5-0.2-5.2-0.5c-2.3-0.3-2.7-1.3-1.7-3.3c1.3-2.7,3-5.2,4.8-7.6
		c2.4-3.3,4.7-6.6,6.9-10c3.4-5.3,6.9-10.6,10.2-16c2.4-4,4.7-8,6.8-12.1c3.7-7,7.2-14.1,10.8-21.1c2.8-5.6,5.6-11.3,8.3-17
		c2.1-4.5,4.2-9.1,6.2-13.6c1.2-2.8,3-4.5,6.3-4.5c4.2,0,8.3-0.2,12.5-0.3c14.2,0,28.3,0,42.5,0c2.3,0,4.7,0.2,7,0.3
		c0.5,0,1,0.1,1.5,0.2c3.5,1,4.1,1.7,2.9,5.1c-1.2,3.5-2.5,7.1-4,10.5c-2.4,5.7-4.9,11.5-7.5,17.1c-2.9,6.2-6.1,12.3-9.2,18.3
		c-1.4,2.8-3,5.5-4.6,8.2c-4.3,7-8.8,14-13.3,20.9c-2.3,3.5-4.7,7-7.3,10.4c-2.9,3.9-5.9,7.7-8.9,11.5c-1.8,2.3-4.4,3.3-7.3,3.3
		c-0.7,0-1.4,0-2.1,0C323.9,150.5,314.7,150.5,305.5,150.5z"/>
	<path class="st0" d="M116.7,461.3c-0.7,0.7-1.9,0.7-2.6-0.1c-0.6-0.7-0.9-1.5-1.1-2.4c-0.2-1.4-0.4-2.9-0.4-4.3
		c0-41.1,0-82.3,0-123.4c0-2.4,0-4.9,1.8-6.9c0,0,0,0,0,0c0.5-0.6,1.4-0.6,2-0.1c1.5,1.2,3,2.4,4.3,3.7c2.6,2.8,5,5.7,7.6,8.6
		c2.4,2.8,4.9,5.5,7.3,8.2c3.8,4.2,7.5,8.5,11.3,12.7c3.2,3.6,6.6,7.1,9.8,10.8c2.2,2.4,4.2,5,6.4,7.4c3.6,4.1,7.4,8,11,12.1
		c0.6,0.7,1.2,1.5,1.7,2.3c1.3,2,1.2,2.8-0.3,4.5c-4.8,5.6-9.7,11.1-14.5,16.6c-12.4,14.2-24.8,28.4-37.3,42.6
		C121.8,455.9,118.7,459.3,116.7,461.3L116.7,461.3z"/>
</g>
</svg>
