<?xml version="1.0" ?><svg baseProfile="tiny" id="Layer_1" overflow="scroll" version="1.1" viewBox="0 0 24 24" xml:space="preserve" xmlns="http://www.w3.org/2000/svg" xmlns:xlink="http://www.w3.org/1999/xlink"><path d="M18.3203125,0.71875C18.1796875,0.5786133,17.9892578,0.5,17.7910156,0.5H2.5244141  c-0.4140625,0-0.75,0.3359375-0.75,0.75v21.5c0,0.4140625,0.3359375,0.75,0.75,0.75h18.9511719  c0.4140625,0,0.75-0.3359375,0.75-0.75V4.9208984c0-0.1992188-0.0791016-0.390625-0.2207031-0.53125L18.3203125,0.71875z   M20.7128296,5.2197266h-2.6981812V2.53125L20.7128296,5.2197266z M3.2744141,22V2h13.2402344v3.9697266  c0,0.4140625,0.3359375,0.75,0.75,0.75h3.4609375V22H3.2744141z" fill="#1D1D1D"/><path d="M11.5,11.25h-2c-0.4140625,0-0.75,0.3359375-0.75,0.75s0.3359375,0.75,0.75,0.75h1.25v5.7724609h-2.5V17  c0-0.4140625-0.3359375-0.75-0.75-0.75S6.75,16.5859375,6.75,17v2c0,0.0483398,0.0187988,0.0904541,0.0275269,0.1362305  C6.7687988,19.1820068,6.75,19.2241211,6.75,19.2724609c0,0.4140625,0.3359375,0.75,0.75,0.75h4  c0.4140625,0,0.75-0.3359375,0.75-0.75V12C12.25,11.5859375,11.9140625,11.25,11.5,11.25z" fill="#1D1D1D"/><path d="M18.5,12.75c0.4140625,0,0.75-0.3359375,0.75-0.75s-0.3359375-0.75-0.75-0.75h-3.6367188  c-0.4140625,0-0.75,0.3359375-0.75,0.75v3.6367188c0,0.4140625,0.3359375,0.75,0.75,0.75H17.75v2.1357422h-2.8867188  c-0.4140625,0-0.75,0.3359375-0.75,0.75s0.3359375,0.75,0.75,0.75H18.5c0.4140625,0,0.75-0.3359375,0.75-0.75v-3.6357422  c0-0.4140625-0.3359375-0.75-0.75-0.75h-2.8867188V12.75H18.5z" fill="#1D1D1D"/></svg>