<?xml version="1.0" encoding="utf-8"?>
<!-- Generator: Adobe Illustrator 25.2.3, SVG Export Plug-In . SVG Version: 6.00 Build 0)  -->
<svg version="1.1" id="Layer_1" xmlns="http://www.w3.org/2000/svg" xmlns:xlink="http://www.w3.org/1999/xlink" x="0px" y="0px"
	 viewBox="0 0 512 512" style="enable-background:new 0 0 512 512;" xml:space="preserve">
<style type="text/css">
	.st0{fill:none;stroke:#000000;stroke-width:25;stroke-miterlimit:10;}
	.st1{fill:none;stroke:#000000;stroke-width:12.4045;stroke-miterlimit:10;}
	.st2{fill:#020202;stroke:#000000;stroke-width:25;stroke-miterlimit:10;}
	.st3{fill:#020202;stroke:#000000;stroke-width:21.0192;stroke-miterlimit:10;}
</style>
<path class="st0" d="M252.9,256"/>
<circle class="st1" cx="252.9" cy="256" r="236.8"/>
<path class="st0" d="M180.2,161.2"/>
<line class="st2" x1="167" y1="178.3" x2="167" y2="355.8"/>
<line class="st2" x1="241.9" y1="170" x2="240.9" y2="353.4"/>
<line class="st2" x1="363.3" y1="238.6" x2="363.3" y2="354.6"/>
<g>
	<path d="M236,238.7c-0.4-8.9,1.9-17.6,5.5-25.4c3.6-7.8,8.6-14.9,14.7-21.1c6-6.2,13.1-11.4,21.2-15.3c8-3.8,17.1-6.1,26.4-6
		c1.2,0,2.2,0.1,3.3,0.1c1.1,0,2.2,0.1,3.3,0.2c2.2,0.2,4.4,0.4,6.6,0.8c4.4,0.7,8.8,1.8,13.1,3.3c8.6,3,16.9,7.9,23.7,14.5
		c6.9,6.6,12.2,14.7,15.7,23.3c3.6,8.6,5.5,17.6,6.4,26.5l-25,1.4c0-6.9-0.9-13.7-2.8-20c-1.9-6.3-5-12-9.2-16.8
		c-4.2-4.8-9.5-8.7-15.7-11.5c-3.1-1.4-6.3-2.5-9.7-3.4c-1.7-0.4-3.4-0.8-5.1-1.1c-0.9-0.1-1.7-0.3-2.6-0.4
		c-0.9-0.1-1.8-0.2-2.6-0.3c-6.6-0.6-13.4,0.5-19.9,2.9c-6.5,2.5-12.7,6.3-18.2,11c-5.4,4.7-10.2,10.4-13.8,16.7
		c-3.5,6.3-5.9,13.3-6.1,20.3L236,238.7z"/>
</g>
<circle class="st3" cx="166.4" cy="144.9" r="10.2"/>
</svg>
