<?xml version="1.0" encoding="utf-8"?>
<!-- Generator: Adobe Illustrator 25.2.3, SVG Export Plug-In . SVG Version: 6.00 Build 0)  -->
<svg version="1.1" id="Layer_1" xmlns="http://www.w3.org/2000/svg" xmlns:xlink="http://www.w3.org/1999/xlink" x="0px" y="0px"
	 viewBox="0 0 314.4 445" style="enable-background:new 0 0 314.4 445;" xml:space="preserve">
<style type="text/css">
	.st0{stroke:#000000;stroke-width:6;stroke-miterlimit:10;}
</style>
<g id="Layer_2_1_">
	<g id="Layer_1-2">
		<g>
			<path class="st0" d="M49.8,203.3c0-27.8,6.7-56.5,18.9-83.9c9.8-22,22.8-42,38.2-60.5c7.1-8.5,14.6-16.8,22.7-24.3
				c4.8-4.5,9.9-8.7,14.9-13c3.7-3.2,6.8-6.7,9.3-10.8c0.6-0.9,1.1-1,2-0.7c6.5,1.8,12.1,5.3,17.6,9c8.3,5.7,15.8,12.3,22.6,19.7
				c4.8,5.2,9.9,10,14.5,15.3c23.9,27.2,40,58.5,48.3,93.8c2,8.4,3.4,16.8,4.3,25.3c1,9.2,1.5,18.4,1.4,27.6
				c-0.2,13.2-1.6,26.3-4,39.3c-2.1,11.3-4.5,22.6-8,33.6c-9.6,29.9-24.8,56.6-45.5,80.2c-8.6,9.9-17.6,19.4-27.3,28.3
				c-0.8,0.7-1.1,1.5-1.3,2.4c-3.3,15.9-6.7,31.8-10,47.6c-0.5,2.2-1.5,3-3.7,2.9c-2.4-0.1-4.7-0.1-7.1-0.2
				c-2.1-0.1-3.4-1.4-3.7-3.5c-0.7-5.9-1.4-11.7-2.1-17.6c-0.6-5.1-1.2-10.1-1.8-15.2c-0.5-3.9-0.9-7.8-1.4-11.6
				c0-0.4-0.3-0.8-0.7-1c-7.5-5.2-14.3-11.2-21.1-17.4c-8.2-7.4-15.9-15.3-23-23.7C82.2,319.4,66,290.9,57,258.6
				c-2.6-9.4-4.5-18.9-5.7-28.6C50.3,221.9,49.8,213.8,49.8,203.3z M155.8,19c-0.7,0.5-1.1,0.8-1.5,1.2c-4.8,4.4-9.7,8.7-14.5,13.1
				c-14.3,12.8-27.2,26.9-38.6,42.4c-18.5,25.3-32,52.9-39.7,83.3c-3.4,13.5-5.5,27.1-6,41c-0.3,9.5,0.2,19.1,1.3,28.6
				c1,8.2,2.5,16.2,4.5,24.2c7.1,28,19.9,53.3,37.2,76.3c14.4,19.1,31.4,35.8,50.3,50.4c0.4,0.3,0.9,0.6,1.4,1
				c0.4-1.1,0.7-2.2,1-3.2c3.8-12,6.7-24.1,9.3-36.4c1.3-6.2,2.6-12.5,3.6-18.8c1.7-10,3.2-20,4.6-30c1.2-8.4,2.1-16.9,3-25.3
				c0.7-6.5,1.2-13.1,1.7-19.7c0.6-7.4,1.2-14.9,1.6-22.3c0.4-6.8,0.7-13.6,1-20.5c0.2-7.5,0.5-14.9,0.5-22.4
				c0-12.7-0.2-25.5-0.4-38.2c-0.1-5.5-0.4-10.9-0.7-16.4c-0.5-7.9-1-15.8-1.7-23.8c-0.5-6.3-1.1-12.6-2-18.9
				c-1.2-8.4-2.5-16.9-4-25.3c-2-10.9-4.7-21.7-8.6-32.1C158.2,24.6,157,21.9,155.8,19z M165.2,21.2c0,0.4,0,0.7,0.1,0.9
				c1.9,8.3,3.8,16.5,5.7,24.8c4.2,17.8,6.6,35.8,8.3,54c0.7,7.2,1.2,14.5,1.7,21.7c0.4,6.9,0.8,13.7,1,20.6
				c0.2,8.2,0.5,16.4,0.4,24.6c-0.1,13.3-0.4,26.5-0.7,39.8c0,2.1-0.1,4.2-0.3,6.3c-0.4,6.3-0.7,12.7-1.1,19c-0.3,5-0.6,10-1,14.9
				c-0.6,6.5-1.2,13-1.9,19.5c-0.7,6.7-1.4,13.3-2.2,20c-0.9,7.2-1.9,14.3-3.1,21.4c-1.6,9.8-3.3,19.5-5.2,29.2
				c-1,5.4-2.1,10.7-1.1,16.2c1.6,8.2,4.2,15.9,8.8,23c0.2,0.4,0.5,0.7,0.8,1c0.4-0.3,0.6-0.6,0.9-0.8c9.8-9.1,18.9-18.8,27.3-29.2
				c16.7-20.8,30.1-43.5,39.6-68.4c7.1-18.4,11.9-37.3,14-56.9c0.6-5.8,1.2-11.6,1.4-17.4c0.3-10.3,0.3-20.7-1.1-31
				c-1-7.3-2.1-14.7-3.5-22c-3.3-16.9-9.6-32.7-17.2-48c-7.4-14.7-16.1-28.6-26.4-41.6c-3.6-4.6-7.3-9.2-11.3-13.5
				c-9.2-10-20-18.2-30.9-26.3C167.3,22.6,166.3,21.9,165.2,21.2z M161.7,362.1c0,0.1-0.1,0.3-0.2,0.6c-2.2,7.6-4.5,15.1-6.7,22.7
				c-0.2,0.6-0.3,1.3-0.2,2c0.3,2.9,0.7,5.9,1,8.8c0.6,5.1,1.2,10.1,1.8,15.2c0.6,5.1,1.2,10.3,1.9,15.4c0.3,2.6,0.4,2.5,3,2.5
				c0.7,0,1-0.2,1.1-0.9c3.1-14.6,6.1-29.1,9.2-43.7c0.1-0.4-0.1-0.9-0.3-1.3c-2-3.3-4.2-6.4-5.9-9.8
				C164.5,369.9,163.2,365.8,161.7,362.1z"/>
		</g>
	</g>
</g>
</svg>
