<svg width="437" height="512" xmlns="http://www.w3.org/2000/svg">
 <g>
  <title>background</title>
  <rect x="-1" y="-1" width="439" height="514" id="canvas_background" fill="none"/>
 </g>

 <g>
  <title>Layer 1</title>
  <g id="svg_1">
   <path class="st2" d="m230.110253,498.90164l-13.560727,-4.353726c0,0 1.506747,-66.031514 -22.977898,-70.748051c-16.197535,-18.140526 2.636808,-776.051696 61.399958,-2.539674c0,0 -20.34109,9.795884 -23.731272,26.485168c-3.766869,16.326473 -1.130061,51.156283 -1.130061,51.156283l0,0l0,0z" id="svg_6" fill="#ffffff" stroke="null"/>
   <path class="st3" d="m230.110253,498.90164l-13.560727,-4.353726c0,0 1.506747,-66.031514 -22.977898,-70.748051c-16.197535,-18.140526 2.636808,-776.051696 61.399958,-2.539674c0,0 -20.34109,9.795884 -23.731272,26.485168c-3.766869,16.326473 -1.130061,51.156283 -1.130061,51.156283l0,0l0,0z" id="svg_7" fill="#1e1e1e" stroke="null"/>
   <path class="st2" d="m237.267304,435.046989c0,0 117.5263,-74.376156 90.028159,-229.296247c-26.36808,-112.47126 -89.274785,-149.477933 -96.055149,-163.627543c-7.533737,-10.158694 -14.690787,-27.93641 -14.690787,-27.93641l4.896929,313.105476c0.376687,0.725621 -9.793858,96.144787 15.820848,107.754724" id="svg_8" fill="#ffffff" stroke="null"/>
   <path class="st4" d="m236.729924,436.59974c0,0 117.5263,-74.376156 90.028159,-229.296247c-26.36808,-112.47126 -89.274785,-149.477933 -96.055149,-163.627543c-7.533737,-10.158694 -14.690787,-27.93641 -14.690787,-27.93641l4.896929,313.105476c0.376687,0.725621 -9.793858,96.144787 15.820848,107.754724" id="svg_9" fill="#3f3f3f" stroke="null"/>
   <path class="st2" d="m209.769163,439.400715c0,0 -110.369249,-72.562103 -103.965573,-200.271405c6.403677,-127.709302 84.001169,-190.475522 99.068644,-202.085458c10.170545,-10.158694 10.547232,-13.7868 11.300606,-23.945494c6.780363,14.14961 5.650303,212.244153 6.403677,235.826836c3.013495,89.614198 -5.273616,173.423427 -12.807353,190.475522l0,0l0,0l-0.000001,-0.000001z" id="svg_10" fill="#ffffff" stroke="null"/>
   <path class="st5" d="m209.769163,441.34869c0,0 -110.369249,-72.562103 -103.965573,-200.271405c6.403677,-127.709302 84.001169,-190.475522 99.068644,-202.085458c10.170545,-10.158694 10.547232,-13.7868 11.300606,-23.945494c6.780363,14.14961 5.650303,212.244153 6.403677,235.826836c3.013495,89.614198 -5.273616,173.423427 -12.807353,190.475522l0,0l0,0l-0.000001,-0.000001z" id="svg_11" fill="#595959" stroke="null"/>
  </g>
 </g>
</svg>