<?xml version="1.0" encoding="utf-8"?>
<!-- Generator: Adobe Illustrator 25.2.3, SVG Export Plug-In . SVG Version: 6.00 Build 0)  -->
<svg version="1.1" id="Layer_1" xmlns="http://www.w3.org/2000/svg" xmlns:xlink="http://www.w3.org/1999/xlink" x="0px" y="0px"
	 viewBox="0 0 512 512" style="enable-background:new 0 0 512 512;" xml:space="preserve">
<style type="text/css">
	.st0{fill:none;stroke:#000000;stroke-width:15;stroke-miterlimit:10;}
	.st1{fill:none;stroke:#000000;stroke-width:24.6417;stroke-miterlimit:10;}
	.st2{fill:none;stroke:#000000;stroke-width:25;stroke-miterlimit:10;}
</style>
<g>
	<path class="st0" d="M480.4,492.4H31.6c-6.6,0-12-5.4-12-12V31.6c0-6.6,5.4-12,12-12h448.9c6.6,0,12,5.4,12,12v448.9
		C492.4,487,487,492.4,480.4,492.4z"/>
	<path class="st0" d="M213.4,387.8"/>
	<path class="st0" d="M213.4,164"/>
	<path class="st1" d="M139.5,165.6l-0.3-87.9c114.5,0.5,226.4-8.8,226.8,83.2c0.4,91-112.6,93.1-226.8,92.6L139.5,165.6z"/>
	<path class="st2" d="M139.5,347l-0.3-87.9c117.9,0.5,232.8,2.8,233.3,94.8c0.5,91-115.7,81.4-233.3,81L139.5,347z"/>
</g>
</svg>
