<?xml version="1.0" encoding="utf-8"?>
<!-- Generator: Adobe Illustrator 25.2.3, SVG Export Plug-In . SVG Version: 6.00 Build 0)  -->
<svg version="1.1" id="Layer_1" xmlns="http://www.w3.org/2000/svg" xmlns:xlink="http://www.w3.org/1999/xlink" x="0px" y="0px"
	 viewBox="0 0 512 512" style="enable-background:new 0 0 512 512;" xml:space="preserve">
<style type="text/css">
	.st0{fill:none;stroke:#000000;stroke-width:11;stroke-miterlimit:10;}
</style>
<g>
	<path d="M155.6,340.7c-0.4,1.3-0.8,2.4-1.2,3.4c-6.4,19.4-12.7,38.9-19.1,58.3c-1.7,5.3-1.7,5.3-7.2,5.3c-16,0-32.1,0-48.1,0
		c-5.3,0-5.6-0.4-3.8-5.4c29.7-85.4,59.5-170.9,89.2-256.3c0.7-2,1-4.3,1.1-6.5c0.2-4.5,0.1-9.1,0.1-13.6c0-2.3,0.3-2.6,2.4-2.7
		c0.6,0,1.3,0,1.9,0c22.1,0,44.1,0.1,66.2,0.1c0.5,0,1.1,0,1.6,0c2.7,0.1,3,0.2,3.9,2.8c2.7,7.5,5.4,15.1,8.1,22.6
		c30,84.1,59.9,168.3,89.9,252.4c0.4,1.2,0.9,2.4,1.3,3.6c0.5,1.8,0,2.6-1.8,2.9c-0.5,0.1-1.1,0-1.6,0c-18.6,0.1-37.1,0.1-55.7,0.2
		c-3.7,0-3.7,0-4.9-3.5c-6.9-20-13.9-40-20.8-60.1c-1.3-3.7-0.7-3.4-4.5-3.4c-31.2,0-62.5-0.1-93.7-0.1
		C157.9,340.7,156.9,340.7,155.6,340.7z M204.9,175.5c-0.2,0-0.4,0-0.6,0c-11,36.6-22.1,73.1-33.2,110.2c22.7-0.4,44.9-0.1,67.5-0.7
		C227.3,248.2,216.1,211.9,204.9,175.5z"/>
	<path d="M431.8,301.9c0,33.7,0,67.3,0,101c0,7-0.5,7.5-7.6,7.4c-14.9-0.1-29.8-0.3-44.6-0.5c-0.9,0-1.9-0.1-2.8-0.1
		c-3.8-0.2-5.2-1.8-5.3-5.6c0-0.8,0-1.7,0-2.5c0.1-65.2,0.2-130.4,0.3-195.7c0-2.7-0.1-5.5,0-8.2c0.1-3.9,1.5-5.4,5.4-5.4
		c11.1,0.1,22.2,0.2,33.2,0.4c5.4,0.1,10.8,0.2,16.1,0.2c5.1,0.1,6.2,1.1,6.2,6.1c0,34.3,0,68.6,0,102.9
		C432.3,301.9,432.1,301.9,431.8,301.9z"/>
	<path d="M402.5,101.7c19.3,0.2,34.5,15.7,34.4,35.2c-0.2,19-15.8,34.2-35.2,34c-19-0.1-34.2-15.8-34-35.2
		C367.8,116.8,383.4,101.5,402.5,101.7z"/>
</g>
<path class="st0" d="M485.5,497.5h-459c-6.6,0-12-5.4-12-12v-459c0-6.6,5.4-12,12-12h459c6.6,0,12,5.4,12,12v459
	C497.5,492.1,492.1,497.5,485.5,497.5z"/>
</svg>
