<?xml version="1.0" encoding="utf-8"?>
<!-- Generator: Adobe Illustrator 25.2.3, SVG Export Plug-In . SVG Version: 6.00 Build 0)  -->
<svg version="1.1" id="Layer_1" xmlns="http://www.w3.org/2000/svg" xmlns:xlink="http://www.w3.org/1999/xlink" x="0px" y="0px"
	 viewBox="0 0 512 512" style="enable-background:new 0 0 512 512;" xml:space="preserve">
<style type="text/css">
	.st0{fill:none;stroke:#000000;stroke-width:14.6334;stroke-miterlimit:9.9998;}
	.st1{stroke:#000000;stroke-width:1.12;stroke-miterlimit:9.9998;}
</style>
<g>
	<path class="st0" d="M332.2,113.6c11.7-5.6,28.8-5.1,36.2,6.4c4.4,6.8,5,15.6,5.4,23.4c0.4,9.8,0,19.7,0.3,29.5
		c0.8,28.2,4.1,58.4,27.2,79.1c11.8,10.6,26.3,13.4,42.2,13.2"/>
	<path class="st0" d="M332.1,418.5c11.7,5.6,28.8,5.1,36.2-6.4c4.4-6.8,5-15.6,5.4-23.4c0.4-9.8,0-19.7,0.3-29.5
		c0.8-28.2,4.1-58.4,27.2-79.1c11.8-10.6,26.3-13.4,42.2-13.2"/>
</g>
<path class="st0" d="M176.7,112.1c-11.7-5.6-28.8-5.1-36.2,6.4c-4.4,6.8-5,15.6-5.4,23.4c-0.4,9.8,0,19.7-0.3,29.5
	c-0.8,28.2-4.1,58.4-27.2,79.1c-11.8,10.6-26.2,13.4-42.2,13.2"/>
<path class="st0" d="M176.8,417c-11.7,5.6-28.8,5.1-36.2-6.4c-4.4-6.8-5-15.6-5.4-23.4c-0.4-9.8,0-19.7-0.3-29.5
	c-0.8-28.2-4.1-58.4-27.2-79.1c-11.8-10.6-26.3-13.4-42.2-13.2"/>
<g>
	<ellipse transform="matrix(0.8663 -0.4995 0.4995 0.8663 -62.2875 152.3536)" cx="253.4" cy="192.5" rx="18.1" ry="17.8"/>
	<g>
		<path d="M234.6,353.3c0.2,0.3,0.7,0.7,2,0.7c8.6,0,27.6-19.1,36.7-46.9c5.9-18,5.2-32.2,4.8-40.8c-0.6-11.4-1.5-26.2-10.7-32.6
			c-1.2-0.8-5.1-3.6-10.2-3.2c-6.5,0.5-10.6,5.9-11.6,7.1c-7.2,9.4,3.2,20,4.2,48.4c0.3,6.8,0.4,14.3-0.5,22.8
			c-0.5,4.7-1,8.8-2.4,13.9C242.2,340.2,232,350.4,234.6,353.3z"/>
		<path d="M234.7,353.3c0.5,0.6,1.3,0.6,2,0.6c0.7,0,1.5-0.2,2.2-0.4c1.4-0.4,2.7-1.1,4-1.9c2.5-1.6,4.8-3.5,6.9-5.5
			c4.3-4.1,8-8.8,11.2-13.8c6.5-10,11.3-21,14.1-32.5c1.4-5.8,2.3-11.6,2.7-17.6c0.4-5.9,0.2-11.9-0.2-17.8
			c-0.4-5.9-0.9-11.9-2.4-17.6c-0.8-2.8-1.9-5.6-3.5-8c-0.8-1.2-1.7-2.3-2.8-3.4c-0.5-0.5-1.1-0.9-1.7-1.4c-0.6-0.4-1.2-0.8-1.8-1.2
			c-2.5-1.4-5.5-2.2-8.3-1.9c-2.9,0.3-5.6,1.6-7.8,3.5c-1.1,0.9-2.1,2-3,3.1c-0.9,1.1-1.6,2.4-2.1,3.7c-0.9,2.7-0.6,5.7-0.1,8.6
			c0.5,2.9,1.3,5.8,2,8.7c0.7,2.9,1.4,5.8,2,8.7c1.2,5.8,1.9,11.8,2.2,17.8c0.2,5.9,0.3,11.9-0.1,17.9c-0.2,3-0.5,5.9-0.9,8.9
			c-0.4,3-0.9,5.9-1.6,8.8c-1.4,5.8-3.6,11.4-6.3,16.7c-1.3,2.7-2.8,5.2-4.3,7.8c-0.7,1.3-1.4,2.6-2.1,3.9c-0.3,0.7-0.6,1.4-0.7,2.1
			C234.2,351.9,234.2,352.7,234.7,353.3z M234.6,353.4c-0.2-0.3-0.4-0.7-0.4-1c0-0.4,0-0.8,0.1-1.1c0.2-0.7,0.4-1.4,0.7-2.1
			c0.6-1.4,1.3-2.7,2-4c1.4-2.6,2.9-5.2,4.2-7.9c2.6-5.3,4.7-10.9,6.1-16.7c0.7-2.9,1.1-5.8,1.4-8.8c0.3-3,0.7-5.9,0.8-8.9
			c0.3-5.9,0.2-11.9-0.1-17.8c-0.3-5.9-1-11.8-2.2-17.6c-0.6-2.9-1.3-5.8-2-8.7c-0.7-2.9-1.5-5.8-2-8.7c-0.5-2.9-0.8-6.1,0.2-9
			c0.5-1.5,1.3-2.8,2.2-4c0.9-1.2,2-2.3,3.2-3.3c2.3-1.9,5.2-3.4,8.3-3.6c3.1-0.3,6.1,0.6,8.8,2.1c0.7,0.4,1.3,0.8,1.9,1.2
			c0.6,0.5,1.2,0.9,1.8,1.4c1.1,1.1,2.1,2.2,2.9,3.5c1.6,2.5,2.7,5.4,3.5,8.3c1.6,5.8,2,11.8,2.4,17.7c0.4,5.9,0.6,11.9,0.1,17.9
			c-0.4,5.9-1.3,11.9-2.8,17.6c-2.9,11.6-7.8,22.6-14.4,32.5c-3.3,5-7,9.7-11.3,13.8c-2.1,2.1-4.4,4-7,5.5c-1.3,0.8-2.6,1.5-4,1.9
			c-0.7,0.2-1.5,0.4-2.2,0.4C236,354.1,235.1,354,234.6,353.4z"/>
	</g>
	<path class="st1" d="M286.2,349.1"/>
</g>
</svg>
