<?xml version="1.0" encoding="utf-8"?>
<!-- Generator: Adobe Illustrator 24.3.0, SVG Export Plug-In . SVG Version: 6.00 Build 0)  -->
<svg version="1.1" id="Layer_1" xmlns="http://www.w3.org/2000/svg" xmlns:xlink="http://www.w3.org/1999/xlink" x="0px" y="0px"
	 viewBox="0 0 512 512" style="enable-background:new 0 0 512 512;" xml:space="preserve">
<path d="M288.2,472.8c-54.3-1.1-137.7-6.5-172-53c-10.4-17.5-7.3-38.3-5.9-57.6c-0.2-10.1,3.4-25.2-9.4-29
	c-35.9-9.7-66.3-33.6-86-65c-34.6-64.4,46.6-143.4,97.8-173.8c53.7-34.8,117.9-57.9,182.6-55C371.1,43.1,431.5,113,472.3,171
	c40.8,60.9,58.8,135.2-36.3,147.1c-13.8,3.1-5.6,20.1-5.4,29.7c3.8,30.5,12.5,68.5-9.8,93.8C383.8,469.7,332.6,471.8,288.2,472.8z
	 M305.6,454.4c30.2-3.1,59.8-5.2,87.4-17.9c24-15.2,26.6-47.6,24.8-73.4c-4.8-42.4-17.9-83.9-35.8-122.6
	c-8.6-16.5-13.3-36.9-27.5-49.6c-27-18.3-126.5-15.1-155,0.1c-44.2,36.9-64.4,95.4-75.1,150.3C96.5,455.1,228.2,453.8,305.6,454.4z
	 M116.6,228.1c-1,0.7-2.3-0.6-1.5-1.5c50.7-60.9,162.1-68,233.9-56.4c30.2,4.8,59.3,14.8,86.8,28c32.1,10.7,1.1-39.8-7.5-48.1
	C354.8,62.8,268,36.2,163.4,87.5c-23.5,11.6-47.3,23.4-68,39.6c-49,39.1-106.4,113.2-37.3,162.7c16.4,12.1,35.3,21.5,55.3,23.9
	c10.9,1.3,13.9-20.7,17.8-27.4c5-13.8,10.2-27.5,15.5-39.8c4.2-9.8,10.3-18.7,15.5-28.1c1.4-3.5,3.3-6.8,4.4-10.2
	c1.2-3.9-2.5-7.6-6.4-6.4C148.3,205.4,126.9,220.5,116.6,228.1z M429.5,300.5c54.2-8.7,56.6-39.5,15.8-71.5
	c-7.8-6.8-76.6-48.9-57.4-13.5c8.6,17.5,12.5,32.6,18.8,51.1c0,0.1,2.4,6.6,2.4,6.7C411.8,282.4,415,299.9,429.5,300.5z"/>
</svg>
