<?xml version="1.0" encoding="utf-8"?>
<!-- Generator: Adobe Illustrator 25.2.3, SVG Export Plug-In . SVG Version: 6.00 Build 0)  -->
<svg version="1.1" id="Layer_1" xmlns="http://www.w3.org/2000/svg" xmlns:xlink="http://www.w3.org/1999/xlink" x="0px" y="0px"
	 viewBox="0 0 512 512" style="enable-background:new 0 0 512 512;" xml:space="preserve">
<style type="text/css">
	.st0{stroke:#000000;stroke-width:6;stroke-miterlimit:10;}
</style>
<path class="st0" d="M94.4,354.8c0.8,0.9,1.4,1.8,2.1,2.4c1.7,1.5,3.5,3,5.4,4.4c3,2.3,5.6,5,7.8,8c4.8,6.5,9.2,13.2,12.4,20.7
	c2.4,5.9,6,11.1,10.1,15.9c4.2,5,9.5,8.5,15.4,11c8.7,3.7,17.8,4.8,27.1,5.3c7.7,0.4,15.3-0.2,22.7-2.5c3.2-1,4-0.4,4.6,2.8
	c0.4,2.3,0.6,4.6,0.9,6.9c0.6,6.4,1.5,12.7,1.8,19.1c0.4,9.4-1.3,18.4-6.2,26.7c-1.1,1.8-3,2.9-5.7,2.2c-32.3-8-61.2-22.5-86.6-44
	c-38.2-32.4-62.2-73.4-73-122.2c-2.2-10.1-3.8-20.3-4.4-30.6c-0.4-6.6-0.9-13.3-0.7-19.9c2.1-70.7,29.6-129.5,83.6-175.4
	c27.6-23.5,59.5-38.8,95-46.6c11-2.4,22.2-4,33.4-4.6c11.7-0.7,23.3-0.7,35,0.2c73.5,5.7,137.5,47.6,174.5,108.4
	c15.9,26.2,26.3,54.4,31.2,84.7c2.5,15.4,3.4,31,2.7,46.6c-3.8,77.5-45.6,145.8-111.1,182.5c-16.7,9.4-34.5,16.3-53.1,21
	c-3.1,0.8-4.8-0.1-6.3-2.7c-3-5.2-4.5-10.9-5.4-16.8c-0.9-5.9-0.3-11.8,0.2-17.7c0.7-7.6,1.3-15.1,1.8-22.7c0.4-5.7,0.8-11.3,0.8-17
	c0-11.5-2.8-22.3-9.2-32c-1.5-2.3-3.1-4.6-4.8-6.9c-2.1-2.8-1.3-5,2.1-5.8c2.2-0.5,4.4-0.6,6.6-0.9c20.6-2.9,39.5-10.2,56.2-22.8
	c18-13.6,30.6-31.1,36.8-53c1.9-6.6,2.9-13.4,3.2-20.3c1.1-25.6-7.3-47.8-23.4-67.4c-1.8-2.2-2.3-4.2-1.4-7
	c2.9-8.6,4.3-17.5,4.4-26.6c0.1-6.8-0.7-13.6-3.2-20c-0.6-1.6-1.4-3-2.1-4.6c-0.8-1.9-2.2-2.5-4.2-2.4c-5.6,0.1-11.1,1.1-16.5,2.5
	c-9.9,2.5-19.4,6-28.3,10.9c-3.6,2-7,4.4-10.4,6.8c-1.2,0.9-2.3,1.1-3.8,0.5c-8.5-3.3-17.4-4.9-26.3-6.1c-6.7-1-13.5-1.8-20.2-2.3
	c-7.3-0.6-14.7-0.5-22,0.2c-10.4,0.9-20.8,2.3-31,4.5c-4.3,0.9-8.5,2.2-12.7,3.6c-1.8,0.6-3.1,0.5-4.6-0.6
	c-14.9-11-31.7-16.9-49.8-19.7c-1.8-0.3-3.7-0.2-5.5-0.3c-1.7-0.1-2.8,0.6-3.6,2.1c-2.3,4.1-3.7,8.5-4.4,13.1
	c-2.1,12.8-0.5,25.3,3.1,37.6c0.1,0.5,0.3,0.9,0.4,1.4c0.9,2.2,0.4,4.1-1.2,5.9c-9.1,10.7-15.7,22.7-19.8,36.1
	c-3.3,10.9-4.8,22-3.9,33.4c1.9,25.3,12.5,46.5,30.8,63.9c16.1,15.2,35.3,24.6,56.8,29.1c4.2,0.9,8.5,1.3,12.8,2
	c1.1,0.2,2.2,0.3,3.3,0.6c2.5,0.9,3.1,2.9,1.5,5.1c-1.8,2.5-3.6,5.1-5.3,7.6c-4.6,6.9-7.2,14.6-8.6,22.7c-0.5,3-2.1,4.6-4.8,5.2
	c-3.4,0.8-6.8,1.7-10.3,2.1c-5.3,0.6-10.7,0.9-16,1.1c-7.9,0.3-14.9-2.4-21.5-6.3c-1.9-1.1-3.5-2.7-5.1-4.3
	c-3.9-4-7.3-8.5-10.2-13.3c-5.3-8.5-13-14.4-21.6-19.3c-3.7-2.1-7.8-3.3-12.1-3.6C98.4,353.4,96.6,353.7,94.4,354.8z M196.8,426.5
	c-1,0.2-1.8,0.4-2.7,0.6c-2.1,0.4-4.2,1-6.4,1.2c-7.4,0.6-14.8,0.6-22.2-0.4c-7-1-13.8-2.3-20.4-5.1c-6.7-2.9-12.5-6.9-17.3-12.5
	c-5-5.8-8.8-12.3-12-19.2c-4.8-10.3-10.7-19.8-20.1-26.7c-1.1-0.8-2.1-1.7-3.1-2.6c-0.9-0.8-1.7-1.7-2.4-2.6
	c-2.9-4-1.3-8.7,3.4-10.3c2.7-0.9,5.5-1.1,8.3-0.7c4.5,0.5,8.8,1.8,12.7,3.9c9.8,5.3,18.2,12,24.4,21.5c2.9,4.4,6.3,8.5,9.6,12.5
	c1.3,1.6,3,2.9,4.8,3.9c5.8,3.3,12,5.3,18.7,4.9c5.4-0.3,10.8-0.8,16.2-1.5c2.7-0.3,5.3-1.1,8-1.7c1.7-11,5.6-20.9,12.5-29.6
	c-4.1-0.7-7.9-1.3-11.6-2.1c-21.9-4.6-41.4-13.9-58-29c-20.1-18.4-31.9-41.1-34.3-68.4c-1-11.6,0.3-23,3.4-34.2
	c4.1-14.4,10.9-27.4,20.4-39c0.8-0.9,1.4-1.7,1-3.2c-2.1-6.6-3.4-13.3-4-20.2c-0.7-8.4-0.5-16.8,1.7-25c1.2-4.7,3.1-9.1,5.9-13
	c1-1.3,2.2-2.1,3.8-2.2c2.2-0.1,4.3-0.2,6.5-0.1c5.8,0.3,11.4,1.4,16.9,3c13.5,3.8,26.5,8.9,37.8,17.5c0.1,0.1,0.3,0.1,0.3,0.1
	c2.6-0.8,5-1.6,7.5-2.3c12.3-3.2,24.9-4.9,37.6-5.9c4.6-0.4,9.3-0.7,13.9-0.6c4.4,0,8.8,0.5,13.1,0.9c14.5,1.3,28.9,3.3,42.6,7.9
	c3.5-2.2,6.7-4.5,10.2-6.4c10.5-5.8,21.7-9.8,33.3-12.4c5.9-1.3,11.8-2.3,17.8-1.6c1.8,0.2,3.2,0.9,4.2,2.4c2,2.8,3.5,5.7,4.6,8.9
	c2.3,6.5,3.2,13.2,3.3,20c0.1,9.7-1.4,19.3-4.3,28.6c-0.5,1.5-0.3,2.5,0.7,3.7c4.5,5.3,8.4,11.1,11.6,17.3
	c11.9,22.5,15.7,46.2,9.8,71.2c-5.5,23.2-18,42-36.3,56.9c-17.2,14.1-37,22.5-58.9,26.2c-2,0.3-4,0.7-6.2,1c0.5,0.7,0.9,1.2,1.2,1.6
	c3,4,5.4,8.3,7.2,12.9c3.2,7.9,4.7,16.1,4.6,24.6c-0.1,5.7-0.6,11.5-0.7,17.2c-0.1,9.3-1.3,18.5-2.3,27.7c-0.7,7.1,0.2,14,2.3,20.8
	c0.6,1.9,1.6,3.6,2.4,5.4c0.8-0.2,1.2-0.2,1.7-0.4c47.9-12.6,86.9-38.7,116.1-78.5c30.8-41.9,44.2-89.3,41.7-141.2
	c-0.7-13.8-2.6-27.3-5.9-40.7c-12.9-51.8-40.2-94.3-82.6-126.8c-28-21.5-59.5-35.2-94.3-41.3c-10-1.8-20.1-2.8-30.2-3.2
	c-9.3-0.4-18.5-0.1-27.8,0.8c-14.3,1.3-28.4,3.6-42.1,7.7c-48.8,14.4-88,42.4-117.8,83.5c-25.6,35.3-39.5,75-42.3,118.4
	c-1,14.6-0.4,29.2,1.6,43.7c2.9,20.7,8.3,40.7,17,59.7c26.6,57.6,70,96.4,130.6,115.6c3.3,1,6.6,1.8,10.1,2.8
	c0.8-1.8,1.8-3.4,2.3-5.1c1.8-5.5,2.9-11.1,2.6-17c-0.3-5-0.9-10-1.3-15C197.3,432.2,197.1,429.4,196.8,426.5z"/>
</svg>
