<?xml version="1.0" encoding="utf-8"?>
<!-- Generator: Adobe Illustrator 25.2.3, SVG Export Plug-In . SVG Version: 6.00 Build 0)  -->
<svg version="1.1" id="Layer_1" xmlns="http://www.w3.org/2000/svg" xmlns:xlink="http://www.w3.org/1999/xlink" x="0px" y="0px"
	 viewBox="0 0 512 512" style="enable-background:new 0 0 512 512;" xml:space="preserve">
<style type="text/css">
	.st0{fill:none;stroke:#000000;stroke-width:11.2423;stroke-miterlimit:10;}
	.st1{fill:none;stroke:#000000;stroke-width:11;stroke-miterlimit:10;}
</style>
<path class="st0" d="M446.8,231.7c-6-3-8.8-11.7-7.8-18.3c1.2-7.3,4.6-12.9,10.2-16.8c10.5-7.6,21.3-7.8,32-0.5
	c7.7,5.2,12.9,12.9,16.4,22.2c5.5,14.8,6.2,29.9,1.9,45.3c-2.2,7.9-6.6,14.6-11.7,20.6c-9.3,10.9-20.6,17.4-33.3,21.3
	c-12.4,3.9-25.1,4.8-37.8,3.3c-10.7-1.3-21.4-2.5-31.5-7.3c-8.3-4-16.4-8.3-24.3-13.5c-15-9.7-30.5-18-46.5-24.8
	c-3.2-1.4-6.4-2.7-9.7-3.9C277,246,246,243,217.3,255.5c-2.9,1-5.8,2-8.6,3c-20,7.4-39,17.2-57.5,29.1c-7.2,4.7-14.6,8.7-22.1,12.6
	c-10,5.2-20.9,6.8-31.6,8.3c-9.9,1.4-20,1.4-29.9-0.5c-15.6-2.9-29.8-9.2-41.6-21.6c-1.9-1.9-3.5-4-5.2-6.2
	c-7.8-9.8-11.2-21.8-11.4-35c-0.2-11.9,2.1-23.1,7.5-33.4c5.1-9.5,11.8-16.7,21.2-19.8c10.3-3.3,19.7-0.6,27.7,7.3
	c4.9,4.8,7.4,11,6.8,18.5c-0.4,5.3-2.8,9.6-6.5,12.7c-0.3,0.3-0.7,0.4-1.2,0.5c0.2-1,0.3-1.6,0.4-2.4c0.8-4.9-1.3-9.8-5.1-12.1
	c-3.8-2.4-7.9-1.5-11.2,2c-5.3,5.8-6.5,13.6-2.9,21.2c5.7,12.2,16.7,16.9,27.6,10.5c10.3-6.1,19.8-13.6,28.2-23.1
	c9.7-11,19.4-22.1,30.8-31.2c12.3-9.8,25.5-17.7,40.3-21.5c16-4.2,31.4-3.1,46.2,3.4c3,1.3,5.9,2.8,8.8,4.5C239,189,250,196,256,208
	c7-13,20-21,32.8-28.1c2.1-1.1,4.2-2,6.3-2.9c4.3-1.7,8.7-3,13.3-3.9c12.3-2.3,24.4-0.9,36.3,3.2c15,5,28.3,13.6,40.3,25
	c5.2,4.7,9.9,9.8,14.8,15c5.9,6.1,11.5,12.7,17.4,18.7c6.5,6.6,14,11.9,21.9,16.2c12.8,6.8,27.4-3.2,28.4-19.1
	c0.4-6.8-2.3-11.9-7.3-15.4c-4.5-3.3-11-0.3-13.1,5.7C445.9,225.5,445.7,228.4,446.8,231.7z"/>
<path class="st1" d="M268.9,248.4c0.1,7.6,0.1,16.6-0.4,24.7c0,2.6-0.1,5.1-0.1,7.6c-2.3,155.8,3.9,221.2-14.1,223.4
	c-8.2,1-12.5-63.5-11.9-222.7c0-2.6,0-5.2,0-7.8c-0.4-7.6-0.4-16.6,0.1-24.9"/>
</svg>
