<?xml version="1.0" encoding="utf-8"?>
<!-- Generator: Adobe Illustrator 25.2.3, SVG Export Plug-In . SVG Version: 6.00 Build 0)  -->
<svg version="1.1" id="Layer_1" xmlns="http://www.w3.org/2000/svg" xmlns:xlink="http://www.w3.org/1999/xlink" x="0px" y="0px"
	 viewBox="0 0 512 512" style="enable-background:new 0 0 512 512;" xml:space="preserve">
<style type="text/css">
	.st0{fill:none;stroke:#000000;stroke-width:31.5204;stroke-miterlimit:9.9998;}
	.st1{fill:none;stroke:#000000;stroke-width:14.3315;stroke-miterlimit:9.9998;}
	.st2{fill:none;stroke:#000000;stroke-width:14.8452;stroke-miterlimit:9.9998;}
	.st3{fill:none;stroke:#000000;stroke-width:16.559;stroke-miterlimit:9.9998;}
	.st4{fill:none;stroke:#000000;stroke-width:34.7964;stroke-miterlimit:9.9998;}
	.st5{fill:none;stroke:#000000;stroke-width:13.4475;stroke-miterlimit:9.9998;}
</style>
<path class="st0" d="M16.4,329.1"/>
<g>
	<g>
		<path class="st1" d="M157.7,185.7"/>
		<path class="st2" d="M179.8,391.6C123.4,356.6,64.7,323.1,8,287.7"/>
		<path class="st2" d="M180.7,165.1C122.3,198.9,65.9,236.7,7.5,271.6"/>
		<path class="st3" d="M26.5,249.5"/>
		<path class="st3" d="M182.5,305.7"/>
		<line class="st2" x1="11.2" y1="265.3" x2="11.5" y2="293.9"/>
	</g>
	<path class="st4" d="M355.4,351.6"/>
	<g>
		<path class="st1" d="M354.6,186.5"/>
		<path class="st2" d="M332.5,392.4C389,357.5,447.6,324,504.4,288.5"/>
		<path class="st2" d="M331.7,166c58.4,33.8,114.8,71.6,173.1,106.5"/>
		<path class="st3" d="M485.9,250.3"/>
		<path class="st3" d="M329.9,306.5"/>
		<line class="st2" x1="501.1" y1="266.2" x2="500.9" y2="294.7"/>
	</g>
</g>
<line class="st5" x1="218.5" y1="400" x2="300.6" y2="158.6"/>
</svg>
