<?xml version="1.0" encoding="utf-8"?>
<!-- Generator: Adobe Illustrator 25.2.3, SVG Export Plug-In . SVG Version: 6.00 Build 0)  -->
<svg version="1.1" id="Layer_1" xmlns="http://www.w3.org/2000/svg" xmlns:xlink="http://www.w3.org/1999/xlink" x="0px" y="0px"
	 viewBox="0 0 512 512" style="enable-background:new 0 0 512 512;" xml:space="preserve">
<style type="text/css">
	.st0{fill:none;stroke:#000000;stroke-width:12.1619;stroke-miterlimit:10;}
	.st1{fill:none;stroke:#000000;stroke-width:10.5933;stroke-miterlimit:10;}
	.st2{fill:none;stroke:#000000;stroke-width:14.6419;stroke-miterlimit:10;}
	.st3{fill:none;stroke:#000000;stroke-width:14.6937;stroke-miterlimit:10;}
</style>
<path class="st0" d="M245.4,115"/>
<path class="st1" d="M420,493.5H92c-6.6,0-12-5.4-12-12v-441c0-6.6,5.4-12,12-12h328c6.6,0,12,5.4,12,12v441
	C432,488.1,426.6,493.5,420,493.5z"/>
<g>
	<path class="st2" d="M276.2,246.4l0,112.2c0.4,73-79.3,74.7-75.2,2"/>
	<path class="st3" d="M297.5,377.6c9.9,53.9,61.9,46.6,72,3.7c10.6-44.9-53.2-40.8-61.8-86.6c-6-31.9,43-73.1,63.3-6.9"/>
</g>
</svg>
