<?xml version="1.0" encoding="utf-8"?>
<!-- Generator: Adobe Illustrator 25.2.3, SVG Export Plug-In . SVG Version: 6.00 Build 0)  -->
<svg version="1.1" id="Layer_1" xmlns="http://www.w3.org/2000/svg" xmlns:xlink="http://www.w3.org/1999/xlink" x="0px" y="0px"
	 viewBox="0 0 512 512" style="enable-background:new 0 0 512 512;" xml:space="preserve">
<style type="text/css">
	.st0{stroke:#000000;stroke-width:2.2299;stroke-miterlimit:10;}
</style>
<g>
	<path class="st0" d="M377.2,323.5c8,1.9,15.7,3.7,23.4,5.7c2.9,0.8,5.6,1.9,8.3,3.2c1.9,0.8,3.6,2,5.3,3.2c2.2,1.6,3.5,3.8,2.9,6.6
		c-0.2,1-0.1,2.1-0.1,3.1c0,29.2,0,58.3,0,87.5c0,3.4-0.1,6.8-0.1,10.2c0,2.2-0.8,4.1-2.5,5.6c-2.3,2.2-5,3.8-7.8,5.2
		c-7,3.3-14.5,5.5-22,7.3c-12.9,3.1-26.1,5.2-39.3,6.9c-17.5,2.3-35.1,3.7-52.8,4.6c-23.2,1.2-46.4,1.5-69.6,0.9
		c-20.7-0.5-41.3-1.7-61.8-4.1c-14.6-1.7-29.1-3.8-43.2-7.8c-4.9-1.4-9.7-3.3-14.4-5.3c-2.4-1.1-4.6-2.8-6.6-4.5
		c-1.8-1.5-2.7-3.4-2.6-5.8c0.1-2.2-0.1-4.4-0.1-6.6c0-29.9,0-59.7,0-89.6c0-1.3,0-2.6-0.2-3.9c-0.5-2.5,0.4-4.6,2.4-6.1
		c2.4-1.8,5-3.4,7.8-4.7c5.9-2.7,12.2-4.4,18.6-5.9c4.2-1,8.5-1.9,12.7-3.1c-2.5-0.5-5.1-1.1-7.6-1.6c-6.8-1.5-13.6-3.1-20-5.9
		c-3.2-1.4-6.3-3.1-9.2-5c-2.7-1.8-4.4-4.4-4.2-7.8c0.1-1.7-0.1-3.5-0.1-5.3c0-29.9,0-59.7,0-89.6c0-1.7,0-3.3-0.2-5
		c-0.3-2.3,0.5-4.2,2.3-5.6c2-1.5,4-3,6.3-4.1c6.1-3,12.6-4.8,19.2-6.4c4.1-1,8.3-1.9,12.5-3.1c-2.4-0.5-4.9-1.1-7.3-1.6
		c-6.5-1.5-13-3.1-19.2-5.8c-3-1.3-6-3-8.7-4.8c-2.7-1.8-4.4-4.4-4.2-7.8c0.1-1.7-0.1-3.5-0.1-5.3c0-29.9,0-59.7,0-89.6
		c0-1.8,0-3.5-0.2-5.2c-0.2-2.1,0.5-3.9,2.1-5.2c1.9-1.5,4-3,6.2-4.2c6.5-3.3,13.5-5.1,20.5-6.8c13.6-3.2,27.3-5.2,41.2-6.9
		c15.8-1.9,31.7-3.2,47.6-4.1c21.3-1.2,42.5-1.8,63.8-1.5c13.2,0.2,26.5,0.4,39.7,1.1c16.6,0.8,33.1,2.1,49.5,4.3
		c12.2,1.6,24.4,3.5,36.1,7.2c2.8,0.9,5.6,2,8.3,3.2c1.8,0.8,3.5,1.9,5,3.1c2.2,1.6,3.1,3.7,3,6.6c-0.2,9.9-0.1,19.8-0.1,29.7
		c0,21,0,42,0,63.1c0,2.8-0.2,5.6-0.2,8.4c0,2.1-0.9,3.9-2.4,5.4c-2.5,2.5-5.6,4.2-8.8,5.6c-6.7,3.1-13.9,5.1-21.1,6.9
		c-2.1,0.5-4.1,1-6.2,1.9c3.7,0.8,7.4,1.4,11.1,2.3c6.4,1.4,12.7,3.1,18.6,5.8c2.7,1.3,5.3,2.7,7.2,5c0.9,1.1,1.3,2.2,1.3,3.6
		c-0.1,32.4-0.1,64.8-0.1,97.2c0,1.8-0.2,3.7-0.2,5.5c-0.1,2-0.9,3.7-2.4,5.1c-2.7,2.6-5.9,4.4-9.3,5.9c-6.9,3.1-14.2,5.1-21.6,6.9
		C381.7,322.4,379.5,323,377.2,323.5z M97.7,211.2c0,4.1,0,8,0,11.9c0,27.6,0,55.2,0,82.8c0,2.7,0.9,4.6,3.4,6
		c6.3,3.8,13.2,6.1,20.3,7.9c16.9,4.4,34.3,6.6,51.7,8.3c20.5,2,41,2.9,61.6,3.1c26,0.4,52-0.5,77.9-2.4c18.1-1.4,36.1-3.3,53.9-6.4
		c10.8-1.9,21.5-4.2,31.8-7.8c4.1-1.4,8.1-3.1,11.7-5.5c2.9-1.9,4.3-4.4,4.3-7.9c-0.1-30.5,0-61,0-91.4c0-0.8-0.1-1.7-0.1-2.8
		c-0.6,0.3-1,0.5-1.4,0.7c-3.3,1.6-6.5,3.5-10,4.6c-6.6,2.1-13.3,4-20.1,5.5c-19.3,4.2-38.9,6.3-58.6,8c-18.1,1.6-36.3,2.6-54.5,2.9
		c-29.5,0.6-59.1,0.4-88.5-1.8c-18.1-1.3-36.1-3-53.9-6.5c-9.9-1.9-19.7-4-28.4-9.2C98.5,211.1,98.2,211.2,97.7,211.2z M98.2,71.8
		c0,1.3,0,2.1,0,3c0,30.6,0,61.1,0,91.7c0,0.4,0,0.7,0,1.1c-0.1,2.2,0.8,3.8,2.8,5c5.1,3.1,10.6,5.3,16.3,7
		c15.8,4.7,32.1,6.9,48.5,8.8c18.7,2.1,37.5,3.2,56.4,3.7c31.4,0.7,62.7,0.2,94-2.4c17.5-1.4,35-3.4,52.3-6.5c11-2,22-4.4,32.5-8.3
		c3.7-1.4,7.3-3.1,10.5-5.5c2.1-1.6,3.2-3.7,3.2-6.3c0-31.1,0-62.2,0-93.3c0-0.5-0.1-1.1-0.3-1.9c-5.2,3.5-10.8,5.5-16.5,7.2
		c-15.1,4.4-30.7,6.9-46.3,8.8c-11.1,1.3-22.3,2.6-33.5,3.3c-16.4,1.1-32.9,1.9-49.4,2.5c-20.9,0.7-41.9,0.6-62.8-0.4
		c-13.2-0.6-26.4-1.4-39.6-2.4c-9.5-0.8-18.9-2-28.3-3.5C124.5,81.1,110.9,78.9,98.2,71.8z M413.7,346.5c-0.7,0.3-1.1,0.5-1.4,0.7
		c-3.4,1.6-6.7,3.4-10.3,4.7c-9.4,3.5-19.3,5.4-29.2,7.2c-16.4,2.9-33,4.9-49.6,6.2c-15.7,1.2-31.5,2.1-47.2,2.6
		c-16.1,0.5-32.3,0.5-48.4,0.4c-26.2-0.2-52.3-1.6-78.3-4.8c-10.5-1.3-21-2.9-31.3-5.4c-5.5-1.3-11-2.9-16.1-5.4
		c-1.4-0.7-2.7-1.4-4.4-2.4c0,1.3-0.1,2.2-0.1,3.1c0,30.4,0,60.8,0,91.2c0,0.6,0,1.2,0,1.8c0,2,0.9,3.4,2.7,4.5
		c4.6,2.8,9.4,4.9,14.5,6.5c13.5,4.2,27.4,6.5,41.4,8.3c21.9,2.8,44,4.3,66.1,4.7c17.8,0.3,35.7,0.2,53.6-0.3
		c14.3-0.4,28.6-1.3,42.9-2.4c15.5-1.2,31-3,46.3-5.7c11-1.9,21.9-4.2,32.4-7.8c4.3-1.5,8.4-3.2,12.2-5.7c3-1.9,4.3-4.4,4.3-7.9
		c-0.1-30.5,0-61,0-91.5C413.9,348.5,413.8,347.6,413.7,346.5z M244.4,78.6c19.4-0.5,35.3-0.7,51.3-1.3c17-0.6,34-1.7,51-3.5
		c12.5-1.3,25-2.7,37.3-5.4c4.8-1.1,9.6-2.6,14.3-4.1c1.4-0.4,2.8-1.3,4-2.2c1.9-1.4,1.9-2.9,0-4.3c-1.1-0.8-2.4-1.6-3.8-2
		c-3.6-1.2-7.2-2.3-10.9-3.1c-14.7-3.2-29.7-4.7-44.7-5.7c-13.6-0.9-27.1-1.7-40.7-2c-23-0.6-46-0.6-69,0.1
		c-18.8,0.6-37.7,1.6-56.4,3.2c-12.9,1.2-25.8,2.6-38.5,4.9c-6.2,1.1-12.4,2.4-18.4,4.6c-1.6,0.6-3.2,1.3-4.6,2.2
		c-3.1,1.9-3.1,3.8,0.2,5.7c1.3,0.8,2.7,1.4,4.2,1.8c5.8,1.4,11.5,3,17.4,4c16.7,2.9,33.6,4.3,50.5,5.1
		C207.6,77.7,227.7,78.1,244.4,78.6z M246.8,357.3c22.7-0.4,45.3-0.9,67.9-2.4c15.4-1,30.7-2.5,46-4.2c9.8-1,19.6-2.6,29.1-5.2
		c3.5-1,7.1-2.2,10.4-3.8c3.7-1.8,3.7-4.2-0.1-6c-2.8-1.4-5.8-2.4-8.9-3.2c-9.1-2.4-18.4-3.5-27.8-4.8c-4.6-0.6-9-0.4-13.5,0.4
		c-3,0.5-6.1,0.9-9.2,1.2c-12.6,1.1-25.2,2.5-37.9,3.3c-16.1,0.9-32.2,1.5-48.3,1.8c-18.5,0.3-37,0-55.4-1.3
		c-12.6-0.9-25.1-2.1-37.6-3.1c-2.6-0.2-5.3-0.7-7.8-0.4c-5.5,0.6-10.9,1.5-16.4,2.5c-6.3,1.1-12.6,2.4-18.6,4.7
		c-1.8,0.7-3.6,1.6-5.2,2.7c-1.9,1.3-1.9,3,0.1,4.3c1.5,1,3.1,1.9,4.8,2.4c5.8,1.5,11.7,3.1,17.6,4.2c16.8,2.9,33.8,4.3,50.8,5.1
		C206.8,356.3,226.8,356.7,246.8,357.3z M247.6,217.7c29.8-0.4,59.6-1.4,89.3-4c13.3-1.1,26.5-2.6,39.6-4.9
		c6.6-1.1,13.2-2.4,19.5-4.7c1.8-0.7,3.7-1.5,5.3-2.6c2.5-1.6,2.4-3.2-0.1-4.9c-0.8-0.5-1.7-1-2.6-1.4c-2-0.8-4.1-1.5-6.1-2.1
		c-8.8-2.4-17.9-3.6-26.9-4.8c-4.4-0.6-8.6-0.4-12.9,0.4c-1.7,0.3-3.4,0.5-5.1,0.7c-13.3,1.3-26.7,2.7-40,3.8
		c-17.3,1.4-34.7,1.9-52.1,2.1c-20.1,0.1-40.2-0.1-60.3-1.6c-11.7-0.9-23.4-2.1-35.2-3.1c-2.7-0.2-5.4-0.6-8.1-0.4
		c-4.2,0.4-8.4,1.1-12.6,1.9c-6.9,1.2-13.9,2.5-20.5,5.1c-1.7,0.6-3.3,1.4-4.8,2.5c-2.2,1.5-2.1,3.2,0.1,4.6c1.6,1,3.5,1.9,5.4,2.5
		c6.9,2.4,14.2,3.6,21.4,4.7c17.1,2.6,34.4,3.9,51.7,4.6C210.8,216.9,229.2,217.2,247.6,217.7z"/>
	<path class="st0" d="M144.6,259.3c-0.1,7.1-6.2,12.8-13.5,12.7c-7.4-0.1-13.4-6.1-13.3-13.3c0.1-7,6.3-12.8,13.6-12.7
		C138.9,246.1,144.7,252,144.6,259.3z"/>
	<path class="st0" d="M131.8,132.8c-7.5,0-13.5-5.8-13.4-13.1c0.1-7,6.1-12.8,13.4-12.8c7.4,0,13.4,5.9,13.4,13.1
		C145.1,127.2,139.2,132.8,131.8,132.8z"/>
	<path class="st0" d="M130.9,411.4c-7.4,0-13.3-5.7-13.3-12.9c0-7.2,6-13.1,13.5-13c7.4,0.1,13.4,6.1,13.3,13.2
		C144.3,405.8,138.2,411.5,130.9,411.4z"/>
</g>
</svg>
